PathFileType	4	(X/Y/Z)	Gait_latera_markers.trc
DataRate	CameraRate	NumFrames	NumMarkers	Units	OrigDataRate	OrigDataStartFrame	OrigNumFrames
100	100	4	38	m	100	78	88
Frame#	Time	RASI			RPSI			LPSI			LASI			RTROCH			RTHI			RTHI2			RTHI3			RTHI4			RKNE			RKNEM			RTIB			RTIB2			RTIB3			RTIB4			RANK			RANKM			RHEE			RTOE			RTOEL			RTOEM			LTROCH			LTHI			LTHI2			LTHI3			LTHI4			LKNE			LKNEM			LTIB			LTIB2			LTIB3			LTIB4			LANK			LANKM			LHEE			LTOE			LTOEL			LTOEM
		X1	Y1	Z1	X2	Y2	Z2	X3	Y3	Z3	X4	Y4	Z4	X5	Y5	Z5	X6	Y6	Z6	X7	Y7	Z7	X8	Y8	Z8	X9	Y9	Z9	X10	Y10	Z10	X11	Y11	Z11	X12	Y12	Z12	X13	Y13	Z13	X14	Y14	Z14	X15	Y15	Z15	X16	Y16	Z16	X17	Y17	Z17	X18	Y18	Z18	X19	Y19	Z19	X20	Y20	Z20	X21	Y21	Z21	X22	Y22	Z22	X23	Y23	Z23	X24	Y24	Z24	X25	Y25	Z25	X26	Y26	Z26	X27	Y27	Z27	X28	Y28	Z28	X29	Y29	Z29	X30	Y30	Z30	X31	Y31	Z31	X32	Y32	Z32	X33	Y33	Z33	X34	Y34	Z34	X35	Y35	Z35	X36	Y36	Z36	X37	Y37	Z37	X38	Y38	Z38

78	0.770000	-0.298639	0.945449	0.157828	-0.260518	0.981205	-0.034193	-0.165337	0.971222	-0.038817	-0.070801	0.946381	0.133971	-0.364835	0.870875	0.104375	-0.377322	0.749513	0.121688	-0.360433	0.770785	0.184742	-0.350969	0.695533	0.219269	-0.365809	0.668451	0.163130	-0.328927	0.534429	0.221277	-0.219344	0.537369	0.212943	-0.350808	0.395213	0.215562	-0.323668	0.404762	0.274162	-0.321224	0.318217	0.289646	-0.349955	0.314070	0.228160	-0.294368	0.097883	0.256717	-0.229999	0.112825	0.300010	-0.241456	0.050812	0.218175	-0.322702	0.073432	0.437745	-0.364852	0.040594	0.377130	-0.263888	0.046147	0.434928	-0.032067	0.880435	0.041846	-0.023717	0.680373	0.030455	-0.027066	0.669964	0.092721	-0.037494	0.586888	0.079208	-0.032160	0.593146	0.014466	-0.041552	0.505312	0.014009	-0.147158	0.514387	0.044918	-0.042591	0.346639	-0.148380	-0.053125	0.310258	-0.095414	-0.068831	0.245855	-0.153876	-0.057534	0.285456	-0.202077	-0.090104	0.177897	-0.281176	-0.157291	0.171756	-0.229568	-0.151541	0.163560	-0.344044	-0.075831	0.050501	-0.165787	-0.034134	0.057781	-0.219973	-0.129067	0.050884	-0.168596
79	0.780000	-0.300601	0.947926	0.169318	-0.261906	0.983086	-0.022601	-0.166806	0.973032	-0.027445	-0.072530	0.948275	0.145103	-0.366553	0.873142	0.114510	-0.378882	0.752085	0.133788	-0.360532	0.773850	0.196403	-0.351428	0.699072	0.231950	-0.367507	0.670839	0.176963	-0.331568	0.535104	0.229402	-0.222527	0.538558	0.222996	-0.352305	0.396161	0.222786	-0.325311	0.404990	0.281267	-0.322677	0.318221	0.295496	-0.351325	0.314757	0.233897	-0.296668	0.098712	0.257723	-0.230512	0.112568	0.301622	-0.241695	0.051256	0.218506	-0.322519	0.070767	0.439970	-0.364925	0.039956	0.378375	-0.264139	0.043487	0.436646	-0.034065	0.881531	0.053467	-0.023740	0.680808	0.045594	-0.025443	0.671449	0.108462	-0.034620	0.587995	0.097106	-0.030117	0.593214	0.031998	-0.037962	0.505858	0.033433	-0.142879	0.512721	0.067146	-0.040742	0.350616	-0.131495	-0.050774	0.312989	-0.079610	-0.067910	0.249599	-0.140061	-0.057547	0.290448	-0.186011	-0.090162	0.187403	-0.268807	-0.156399	0.178398	-0.216830	-0.152089	0.177993	-0.330852	-0.075212	0.052487	-0.162400	-0.034168	0.062716	-0.216256	-0.128976	0.052640	-0.164664
80	0.790000	-0.302594	0.950273	0.180856	-0.263203	0.984825	-0.010691	-0.168347	0.974768	-0.016191	-0.074370	0.950095	0.156186	-0.367905	0.874854	0.124894	-0.380852	0.754822	0.145741	-0.361100	0.776160	0.208159	-0.352433	0.701816	0.243647	-0.369545	0.673500	0.189044	-0.333739	0.535402	0.236995	-0.224911	0.539865	0.232225	-0.353535	0.396746	0.229237	-0.326447	0.404693	0.287839	-0.323477	0.317837	0.300841	-0.352153	0.315248	0.239089	-0.296875	0.098826	0.259322	-0.230781	0.112131	0.302905	-0.241801	0.051616	0.218728	-0.321849	0.068416	0.441589	-0.364687	0.039566	0.379305	-0.262643	0.041067	0.436485	-0.035319	0.883108	0.064784	-0.022877	0.681199	0.061585	-0.023813	0.673303	0.124512	-0.031478	0.589329	0.115079	-0.027968	0.593262	0.049854	-0.035168	0.505504	0.053689	-0.138674	0.511470	0.090610	-0.038909	0.355487	-0.113856	-0.047343	0.316923	-0.063049	-0.065716	0.254563	-0.124320	-0.056579	0.296695	-0.169988	-0.089923	0.197350	-0.254879	-0.155269	0.185588	-0.202753	-0.153624	0.192418	-0.316105	-0.074814	0.054631	-0.157704	-0.034418	0.068453	-0.211593	-0.128637	0.055443	-0.159557
81	0.800000	-0.304398	0.952066	0.192241	-0.265075	0.986590	0.000488	-0.170152	0.976406	-0.005189	-0.076808	0.952015	0.167201	-0.369253	0.876416	0.135861	-0.382960	0.757052	0.156901	-0.362847	0.778006	0.219347	-0.353888	0.702904	0.254056	-0.373379	0.677909	0.195334	-0.335231	0.535481	0.244247	-0.225366	0.541192	0.240037	-0.354172	0.396845	0.235112	-0.327215	0.404159	0.293702	-0.323762	0.317133	0.305517	-0.352429	0.315314	0.243713	-0.296873	0.098962	0.260558	-0.230856	0.111516	0.303893	-0.241914	0.051766	0.218929	-0.321388	0.066548	0.442468	-0.364481	0.039419	0.379692	-0.261803	0.039609	0.437261	-0.037741	0.883810	0.076688	-0.022132	0.681610	0.077482	-0.022457	0.675007	0.141267	-0.028433	0.590935	0.133191	-0.026245	0.593302	0.067745	-0.032178	0.505871	0.074264	-0.134773	0.510256	0.114197	-0.038044	0.360059	-0.094837	-0.047249	0.317250	-0.045082	-0.064965	0.259272	-0.108419	-0.053920	0.304702	-0.153086	-0.089789	0.207253	-0.239735	-0.153986	0.192757	-0.187434	-0.154559	0.207152	-0.299343	-0.073926	0.057528	-0.151830	-0.034796	0.075082	-0.205859	-0.128110	0.058913	-0.153533
